PathFileType	4	(X/Y/Z)	39_2_37_p1_0-711.trc
DataRate	CameraRate	NumFrames	NumMarkers	Units	OrigDataRate	OrigDataStartFrame	OrigNumFrames
50.0	50.0	5	27	m	50.0	623	712
Frame#	Time	RHip			RKnee			RAnkle			RBigToe			RSmallToe			RHeel			LHip			LKnee			LAnkle			LBigToe			LSmallToe			LHeel			Neck			Head			Nose			RShoulder			RElbow			RWrist			RThumb			RIndex			RPinky			LShoulder			LElbow			LWrist			LThumb			LIndex			LPinky			
		X1	Y1	Z1	X2	Y2	Z2	X3	Y3	Z3	X4	Y4	Z4	X5	Y5	Z5	X6	Y6	Z6	X7	Y7	Z7	X8	Y8	Z8	X9	Y9	Z9	X10	Y10	Z10	X11	Y11	Z11	X12	Y12	Z12	X13	Y13	Z13	X14	Y14	Z14	X15	Y15	Z15	X16	Y16	Z16	X17	Y17	Z17	X18	Y18	Z18	X19	Y19	Z19	X20	Y20	Z20	X21	Y21	Z21	X22	Y22	Z22	X23	Y23	Z23	X24	Y24	Z24	X25	Y25	Z25	X26	Y26	Z26	X27	Y27	Z27	
623	12.46	0.3068285057190461	0.5979563769024728	0.47220904901681376	0.2666368464902075	0.7494625838768515	0.9357460984108725	0.22479424870408307	0.8323279066192433	1.3245033620215076	0.21097182847877702	0.6523018719422382	1.3521063866072307	0.2809439130474874	0.6707091158243985	1.3552256451380031	0.19759333163537643	0.9206804352970394	1.377216840295012	0.08042763006408883	0.6299412968887395	0.4685661009677761	0.05515987659364595	0.7413883839832066	0.9068682963017037	0.02559094229420884	0.82039298469033	1.3011963026171065	0.05839913617544206	0.6411996694431809	1.325280165193683	-0.0007217054456171814	0.6946197773017228	1.340137447110691	0.039521712982048054	0.8724727483414465	1.3518855155450105	0.24512135393642845	0.5743629498965089	-0.05124832106231033	0.24729987042086235	0.4640496336050476	-0.27380538066134835	0.2531060592798148	0.40003297303696256	-0.14994788700353745	0.3906325592234667	0.5830644480868068	0.03911372656520394	0.41881841409835835	0.6930588590294207	0.3019413685580728	0.48203895026146604	0.6054514538976973	0.5230176545074328	0.5026524427199648	0.5291059836732184	0.6364003166668701	0.5174583199072461	0.5409463510295737	0.6426423569279901	0.5114015072452437	0.6287884350872388	0.6507759043980632	0.06636214534428839	0.5992650320301587	0.021364741961902158	0.001270784960238026	0.6063960845548445	0.2885579161068472	-0.01613961904357019	0.5347790439687222	0.5250182403636228	0.005857333364645014	0.5775975147421147	0.6401042951503858	-0.020554170608715935	0.5240498182625831	0.6497899769941731	-0.056163785017729145	0.5832340872863694	0.6423016372170379
624	12.48	0.3019785713654094	0.6123983221545277	0.47488980933284397	0.26091204977587207	0.7628957047552754	0.9357740708611542	0.21964402942123018	0.827324171322694	1.3180855847336643	0.2162233792462337	0.636490915384004	1.3449710706937816	0.28584503003090284	0.6545087846192787	1.3477280693498945	0.19197443829940025	0.9175822617932172	1.3813346003454894	0.08024511541906787	0.6300064203231441	0.46854167956179227	0.05481694203347999	0.7393598342198153	0.9015823081025021	0.02703832494841063	0.8347092359948787	1.2978180054617476	0.057131380762697755	0.6427372476072849	1.3295395447358618	-0.000527607614013948	0.6938650416930227	1.3444108495123852	0.03957003537892838	0.8723950943868382	1.3513913031272247	0.24522648992810545	0.5742958011328265	-0.05141242426613996	0.24758213517640537	0.46367287437153737	-0.2739124881825657	0.2532317859854763	0.3997245454336648	-0.1500139885356013	0.39074137370821943	0.5831294483195801	0.03902187087931245	0.4188387316282126	0.692909335321622	0.3019221066106351	0.4897664630025725	0.5906228451235923	0.5162050343759078	0.5065248511994169	0.5162356723333605	0.6321467425027936	0.5177552054990122	0.540358043868088	0.6420460096235012	0.507769025568411	0.6156870619468632	0.6394639936598149	0.06641366959660835	0.5993713743528098	0.02133462499307694	0.001292931172490533	0.6062120486022371	0.2887416701795848	-0.01738539422053006	0.5207284902500261	0.5263828570981757	0.004153735285603885	0.5642721086149348	0.6368943569198975	-0.01654273756908795	0.5259128059267512	0.6505328202263647	-0.04960571263841491	0.569128931627589	0.6390465834355199
625	12.5	0.30508466614469326	0.625409212935849	0.47719492383217654	0.26610126794199057	0.7473033863763717	0.9307472642646005	0.22420452411184505	0.8299819795039591	1.319144317124546	0.2161377314735445	0.6360702875221694	1.3450979756908832	0.28054669390851306	0.6696479757125658	1.355125752869773	0.19741570693730792	0.9204085631207976	1.3769944443517865	0.08040979748681051	0.6299744631766193	0.46868719230727857	0.05472368216667715	0.7395374382871421	0.901829375167883	0.02713555442885575	0.8345210790211312	1.2977236990235181	0.05711313465563127	0.6428018053274148	1.329666145542056	-0.0004940617092981201	0.6938200984802452	1.3443698736278695	0.03979145945778212	0.8719759497140909	1.3509134212882634	0.2452281547294933	0.5742211073504492	-0.051486029158795264	0.24761680973673433	0.4633708756082151	-0.27388331656098514	0.2574017846196431	0.38845620271709425	-0.14959531439885387	0.3907483017476732	0.5831128642158637	0.03900927863398448	0.4187258049349873	0.6935624846023113	0.29806286764603857	0.492928564711453	0.5728370322907803	0.5089050983279567	0.5068913391812941	0.515375862324455	0.6303837302349596	0.5179525670979066	0.5157192668364254	0.6355170077986507	0.5152543851809288	0.5832805046444556	0.6316704231214302	0.07143680414006273	0.5869448431730047	0.020996626981182216	0.0014456201190995454	0.6059913743762277	0.28861180013028576	-0.017344991293541376	0.5204404974117741	0.5260701466899932	0.002414311429862913	0.5503750749361761	0.6334856504155572	-0.018124276579249345	0.512431943321151	0.6471678023648044	-0.049495451178671476	0.5680835767245556	0.6386051918215715
626	12.52	0.300375877493197	0.640200940659805	0.479658542584331	0.26084064575283716	0.7638957651398076	0.9320867445300439	0.2328486022402897	0.8270414584994401	1.3174185009389545	0.21746201861448686	0.667499195357441	1.3597295916703764	0.2804694701486303	0.6697836603092976	1.3549724208440925	0.19378781959340896	0.9168086440446614	1.374644652757196	0.07446422693376137	0.644243065987089	0.47121287438576626	0.0484696244522958	0.7556040112260106	0.9024834384482802	0.029010866735860955	0.8356663730950661	1.2984219745466925	0.05696216198868556	0.6431332928940469	1.330033951471224	0.0002504788340380257	0.6937671812948044	1.3405511873096578	0.0411295569971215	0.8701064145317087	1.3444912531373379	0.24516263196342156	0.5741775565167446	-0.05128330928426592	0.2519832948712179	0.451642335199181	-0.2729395102122219	0.25747447388701106	0.3885429881305122	-0.14942910966245088	0.39091985317461203	0.5835379243723872	0.0352613477631824	0.4226439781356868	0.6770580837771666	0.2923226746538303	0.48899174357203457	0.5454335538658783	0.5067452186638649	0.4920543454735653	0.4444375709451436	0.6089621185034642	0.5110044611623814	0.49922552356560507	0.62710129039868	0.5140051982882918	0.5293104794181126	0.6229426781649813	0.06948035704484287	0.5739277340180625	0.020360492413607437	-0.00467518976510444	0.6212421289250815	0.2945309481915728	-0.007507410207423573	0.5092350745560804	0.5235593708896101	0.02398934338535411	0.4845075858643203	0.6173654747758113	-0.0058391332925566974	0.4836133910292955	0.6432842718144299	-0.020536925574971717	0.5057702097323677	0.626335720324344
627	12.54	0.30581203120312306	0.6256045541528971	0.4692950752259596	0.26605867640475345	0.748268049924298	0.9270549210067079	0.22713641292104922	0.8449031800486378	1.325256795558747	0.21744736583955634	0.6678048883345074	1.359805828692948	0.2805009347816696	0.6701490278048701	1.355118404068059	0.1936854680225995	0.9170436746283249	1.3745843526879673	0.0745051672512682	0.643927998994979	0.4706949632882968	0.04868860110882934	0.7580564404461435	0.9076815753433639	0.0267507261124553	0.8205675006649397	1.292187240522733	0.05869885636570461	0.657420144810587	1.336694238750904	-8.171822586542869e-05	0.6952450069262957	1.3368880924437052	0.04101285404002976	0.8703733056415913	1.3448362562932652	0.24106691841741415	0.5728405495329528	-0.05129864568299452	0.2521037149731245	0.45181599517125665	-0.2729657621849918	0.2572002116160054	0.3886748562285333	-0.14660362000111707	0.39088065168745545	0.583489607602838	0.035308934691748554	0.42317553712156664	0.677441490698808	0.30010131204127494	0.47733363584894883	0.5208645446206456	0.5018284838443312	0.48690229908781585	0.4293519491502379	0.6024965327015998	0.4961562756098395	0.45394015449989755	0.6123707134680288	0.5053930809898496	0.5165374174911637	0.6157128259498263	0.06940995878127602	0.5737939955708493	0.020415112688487606	0.006555762460909976	0.5945568709804568	0.2946854034294651	-0.001804745055279074	0.4967654816536033	0.520800363707219	0.039146860178472465	0.44675742655053063	0.6051540640502244	0.006778368488502676	0.4582400107800163	0.628987109592792	-0.01957727908327464	0.5051045634952246	0.6230078970489212
